# xmcd
# Track frame offsets:
# 150
# 14151
# 30675
# 46229
# 60684
# 77168
# 93382
# 104896
# 124191
# 140534
#
# Disc length: 2107 seconds
# Revision: 0
# Processed by: cddbd v1.5.2PL0 Copyright (c) Steve Scherf et al.
# Submitted via: VisiTrax 2.11.2.271 - For more info visit www.synapsa.com
#
DISCID=8e08390a
DTITLE=Texettes, The - All Through the Night
DYEAR=1900
DGENRE=
TTITLE0=All Through the Night
TTITLE1=Babe
TTITLE2=Having a Good Time
TTITLE3=Love Won't Break My Heart
TTITLE4=REd Dog
TTITLE5=Waiting for the Heartache
TTITLE6=I Got Drunk
TTITLE7=Mystery in Me. The
TTITLE8=Let This Pony Be
TTITLE9=Before We Turn To Dust
EXTD=
EXTT0=
EXTT1=
EXTT2=
EXTT3=
EXTT4=
EXTT5=
EXTT6=
EXTT7=
EXTT8=
EXTT9=
PLAYORDER=
